# xmcd
#
# Track frame offsets:
#	150
#	29626
#	50986
#	71353
#	95153
#	112476
#	125770
#	146085
#	173824
#	209561
#	229391
#	258358
#	275810
#	297243
#
# Disc length: 4393 seconds
#
# Revision: 1
# Processed by: cddbd v1.5.2PL0 Copyright (c) Steve Scherf et al.
# Submitted via: audiograbber 1.83.01
#
DISCID=f711270e
DTITLE=Billy Paul - Les Quatre Plus Grandes Légendes de la Soul
DYEAR=2000
DGENRE=Soul
TTITLE0=Your Song
TTITLE1=Me And Mrs. Jones
TTITLE2=Its Too Late
TTITLE3=Am I Black Enough For You ?
TTITLE4=Ebony Woman
TTITLE5=Thanks For Saving My Life
TTITLE6=Mrs Robinson
TTITLE7=I see the Light
TTITLE8=I'm Just A Prisoner
TTITLE9=I'm Gonna Make It This Time
TTITLE10=Let's Stay Together
TTITLE11=Everyday People
TTITLE12=The Whole Town's Talking
TTITLE13=Brown Baby (Live)
EXTD=
EXTT0=
EXTT1=
EXTT2=
EXTT3=
EXTT4=
EXTT5=
EXTT6=
EXTT7=
EXTT8=
EXTT9=
EXTT10=
EXTT11=
EXTT12=
EXTT13=
PLAYORDER=
